<svg width="42" height="42" viewBox="0 0 42 42" fill="none" xmlns="http://www.w3.org/2000/svg">
<path d="M13.3493 19.5559C12.7819 18.9517 11.8975 18.9884 11.5216 19.7623L2.25036 38.2604C1.88187 38.9974 2.42722 39.8597 3.23793 39.8597H16.135C16.5624 39.8671 16.9458 39.6238 17.1226 39.2406C19.9158 33.507 18.2355 24.7737 13.3493 19.5559Z" fill="#0C62DC"/>
<path d="M20.1442 2.73085C11.131 16.9839 19.5178 28.4217 24.9345 39.248C25.1188 39.6239 25.502 39.8672 25.9221 39.8672H38.7603C39.5858 39.8672 40.1163 38.9975 39.7479 38.2679C39.7479 38.2679 22.4656 3.5857 22.0308 2.72347C21.6403 1.9422 20.6454 1.92752 20.1442 2.73085Z" fill="#2681FF"/>
</svg>
